<svg aria-hidden="true" style="position: absolute; width: 0; height: 0; overflow: hidden;" version="1.1" xmlns="http://www.w3.org/2000/svg" xmlns:xlink="http://www.w3.org/1999/xlink">
<defs>
<symbol id="icon-phone" viewBox="0 0 25 32">
<title>phone</title>
<path d="M25.143 22.143c0 0.643-0.286 1.893-0.554 2.482-0.375 0.875-1.375 1.446-2.179 1.893-1.054 0.571-2.125 0.911-3.321 0.911-1.661 0-3.161-0.679-4.679-1.232-1.089-0.393-2.143-0.875-3.125-1.482-3.036-1.875-6.696-5.536-8.571-8.571-0.607-0.982-1.089-2.036-1.482-3.125-0.554-1.518-1.232-3.018-1.232-4.679 0-1.196 0.339-2.268 0.911-3.321 0.446-0.804 1.018-1.804 1.893-2.179 0.589-0.268 1.839-0.554 2.482-0.554 0.125 0 0.25 0 0.375 0.054 0.375 0.125 0.768 1 0.946 1.357 0.571 1.018 1.125 2.054 1.714 3.054 0.286 0.464 0.821 1.036 0.821 1.589 0 1.089-3.232 2.679-3.232 3.643 0 0.482 0.446 1.107 0.696 1.536 1.804 3.25 4.054 5.5 7.304 7.304 0.429 0.25 1.054 0.696 1.536 0.696 0.964 0 2.554-3.232 3.643-3.232 0.554 0 1.125 0.536 1.589 0.821 1 0.589 2.036 1.143 3.054 1.714 0.357 0.179 1.232 0.571 1.357 0.946 0.054 0.125 0.054 0.25 0.054 0.375z"></path>
</symbol>
<symbol id="icon-location-arrow" viewBox="0 0 25 32">
<title>location-arrow</title>
<path d="M25.018 6.232l-11.429 22.857c-0.196 0.393-0.589 0.625-1.018 0.625-0.089 0-0.179-0.018-0.268-0.036-0.518-0.125-0.875-0.571-0.875-1.107v-10.286h-10.286c-0.536 0-0.982-0.357-1.107-0.875s0.125-1.054 0.589-1.286l22.857-11.429c0.161-0.089 0.339-0.125 0.518-0.125 0.304 0 0.589 0.107 0.804 0.339 0.357 0.339 0.446 0.875 0.214 1.321z"></path>
</symbol>
</defs>
</svg>
